<mxfile host="app.diagrams.net" agent="Mozilla/5.0 (Windows NT 10.0; Win64; x64) AppleWebKit/537.36 (KHTML, like Gecko) Chrome/127.0.0.0 Safari/537.36" version="24.7.7">
  <diagram name="Page-1" id="j25ZCm1TXIqqxFwWsPrZ">
    <mxGraphModel dx="1194" dy="618" grid="1" gridSize="10" guides="1" tooltips="1" connect="1" arrows="1" fold="1" page="1" pageScale="1" pageWidth="850" pageHeight="1100" math="0" shadow="0">
      <root>
        <mxCell id="0" />
        <mxCell id="1" parent="0" />
        <mxCell id="ybaveV3DAyDXlLz-k_LM-1" value="Begin Settings" style="strokeWidth=2;html=1;shape=mxgraph.flowchart.terminator;whiteSpace=wrap;" parent="1" vertex="1">
          <mxGeometry x="367" y="90" width="115.5" height="50" as="geometry" />
        </mxCell>
        <mxCell id="ybaveV3DAyDXlLz-k_LM-2" value="End Settings" style="strokeWidth=2;html=1;shape=mxgraph.flowchart.terminator;whiteSpace=wrap;" parent="1" vertex="1">
          <mxGeometry x="367.75" y="730" width="115.5" height="50" as="geometry" />
        </mxCell>
        <mxCell id="ybaveV3DAyDXlLz-k_LM-26" value="" style="endArrow=classic;html=1;rounded=0;exitX=0.5;exitY=1;exitDx=0;exitDy=0;exitPerimeter=0;entryX=0.5;entryY=0;entryDx=0;entryDy=0;" parent="1" source="ybaveV3DAyDXlLz-k_LM-1" edge="1">
          <mxGeometry width="50" height="50" relative="1" as="geometry">
            <mxPoint x="395.5" y="410" as="sourcePoint" />
            <mxPoint x="425.5" y="170" as="targetPoint" />
          </mxGeometry>
        </mxCell>
        <mxCell id="ybaveV3DAyDXlLz-k_LM-29" value="&amp;nbsp;Set Sensor Threshold to Upper %&amp;nbsp; x 100" style="rounded=0;whiteSpace=wrap;html=1;" parent="1" vertex="1">
          <mxGeometry x="274.75" y="610" width="300" height="30" as="geometry" />
        </mxCell>
        <mxCell id="ybaveV3DAyDXlLz-k_LM-30" value="&amp;nbsp;Set Runtime to Upper % x 60 seconds" style="rounded=0;whiteSpace=wrap;html=1;" parent="1" vertex="1">
          <mxGeometry x="275.5" y="670" width="300" height="30" as="geometry" />
        </mxCell>
        <mxCell id="ybaveV3DAyDXlLz-k_LM-40" value="" style="endArrow=classic;html=1;rounded=0;exitX=0.5;exitY=1;exitDx=0;exitDy=0;entryX=0.5;entryY=0;entryDx=0;entryDy=0;" parent="1" source="ybaveV3DAyDXlLz-k_LM-29" target="ybaveV3DAyDXlLz-k_LM-30" edge="1">
          <mxGeometry width="50" height="50" relative="1" as="geometry">
            <mxPoint x="400" y="490" as="sourcePoint" />
            <mxPoint x="450" y="440" as="targetPoint" />
          </mxGeometry>
        </mxCell>
        <mxCell id="ybaveV3DAyDXlLz-k_LM-41" value="" style="endArrow=classic;html=1;rounded=0;exitX=0.5;exitY=1;exitDx=0;exitDy=0;entryX=0.5;entryY=0;entryDx=0;entryDy=0;entryPerimeter=0;" parent="1" source="ybaveV3DAyDXlLz-k_LM-30" target="ybaveV3DAyDXlLz-k_LM-2" edge="1">
          <mxGeometry width="50" height="50" relative="1" as="geometry">
            <mxPoint x="400" y="490" as="sourcePoint" />
            <mxPoint x="450" y="440" as="targetPoint" />
          </mxGeometry>
        </mxCell>
      </root>
    </mxGraphModel>
  </diagram>
</mxfile>
